<svg width="122" height="19" viewBox="0 0 122 19" fill="none" xmlns="http://www.w3.org/2000/svg">
<path d="M6.33831 18.316C4.27218 18.316 2.30863 17.568 0.759277 16.607L1.79282 13.831C3.23863 14.792 4.8925 15.433 6.44186 15.433C8.50799 15.433 9.33541 14.365 9.33541 13.298C9.33541 12.123 8.71508 11.376 5.61541 10.201C2.30863 8.92099 1.1725 7.31899 1.1725 5.18299C1.1725 2.51399 3.23863 0.0589905 6.85508 0.0589905C8.71508 0.0589905 10.4715 0.592991 11.6077 1.23299L10.6786 4.00899C9.64508 3.47499 8.19831 2.83499 6.85605 2.83499C5.09863 2.83499 4.27218 3.90199 4.27218 5.07699C4.27218 6.25099 5.20121 6.89199 7.57799 7.85299C11.4006 9.34699 12.4341 10.949 12.4341 13.298C12.5377 16.394 10.1619 18.316 6.33831 18.316ZM21.6296 12.87V17.995H18.6335V0.379991H23.9028C28.4493 0.379991 30.7225 2.94199 30.7225 6.67999C30.7225 10.416 28.4483 12.978 23.2835 12.978H21.6296V12.872V12.87ZM21.6296 3.26199V10.202H23.5931C26.3831 10.202 27.4157 8.59999 27.4157 6.67799C27.4157 4.75599 26.4867 3.26199 23.5931 3.26199H21.6296ZM36.3015 0.37899H39.2977V10.735C39.2977 14.152 40.7444 15.54 43.3273 15.54C45.9112 15.54 47.4596 14.152 47.4596 10.735V0.379991H50.4567V10.736C50.4567 15.968 47.5631 18.316 43.3273 18.316C39.0915 18.316 36.3015 15.968 36.3015 10.736V0.379991V0.37899ZM55.6225 0.37899H69.9838V3.26199H64.4048V17.995H61.4086V3.26199H55.726V0.37899H55.6225ZM75.1506 0.271991H76.0806L86.6193 11.589V0.37899H89.6154V18.102H88.789L78.1467 7.10499V18.102H75.1506V0.271991ZM97.0544 0.37899H100.051V17.995H97.0544V0.37899ZM107.49 0.37899H110.486V9.02699L117.719 0.37899H121.334L113.482 9.66799L121.748 17.995H118.028L110.486 10.415V17.995H107.49V0.37899Z" fill="#231F20"/>
</svg>
