<svg width="22" height="24" viewBox="0 0 22 24" fill="none" xmlns="http://www.w3.org/2000/svg">
<path d="M6.64839 9.53201L0.242905 14.657V15.725L6.33871 12.735L6.64839 9.53201ZM14.3981 16.152L10.9877 23.732L9.95516 23.946L11.401 17.113L14.3981 16.152Z" fill="#231F20"/>
<path d="M6.33871 18.18C6.13161 17.22 5.92549 10.066 7.37226 6.33C8.61097 3.02 11.1948 0.349999 14.191 0.0299988C15.7413 -0.0770012 17.6003 0.136999 19.3568 1.738C21.2168 3.233 21.7336 4.835 21.9406 6.436C22.3539 9.639 20.2868 12.736 17.4977 14.657C14.2945 16.899 6.75194 18.287 6.54581 18.287C6.44226 18.287 6.33871 18.287 6.33871 18.18Z" fill="#FFD300"/>
<path d="M15.2245 10.92C17.1646 10.92 18.7374 9.2948 18.7374 7.29C18.7374 5.28521 17.1646 3.66 15.2245 3.66C13.2844 3.66 11.7116 5.28521 11.7116 7.29C11.7116 9.2948 13.2844 10.92 15.2245 10.92Z" fill="#231F20"/>
<path d="M15.2245 9.32599C16.289 9.32599 17.1532 8.43399 17.1532 7.33299C17.1532 6.23199 16.29 5.33899 15.2245 5.33899C14.159 5.33899 13.2958 6.23199 13.2958 7.33299C13.2958 8.43299 14.159 9.32599 15.2245 9.32599Z" fill="white"/>
</svg>
